<?xml version="1.0" encoding="UTF-8"?>
<svg xmlns="http://www.w3.org/2000/svg" xmlns:xlink="http://www.w3.org/1999/xlink" width="50pt" height="50pt" viewBox="0 0 50 50" version="1.1" fill="#8B8B8B">
<g id="surface2101647">
<path style=" stroke:none;fill-rule:nonzero;fill-opacity:1;" d="M 6 4 C 4.898438 4 4 4.898438 4 6 L 4 44 C 4 45.101562 4.898438 46 6 46 L 44 46 C 45.101562 46 46 45.101562 46 44 L 46 6 C 46 4.898438 45.101562 4 44 4 Z M 13.027344 14 C 15.269531 14 16.898438 14.570312 18.089844 15.628906 C 19.75 17.070312 21 20.070312 21 24.578125 C 21 29.5 19.78125 32.1875 18.410156 33.699219 C 17 35.257812 14.921875 36 12.460938 36 C 11.472656 36 10.699219 35.9375 10 35.777344 L 10 14.417969 C 10.929688 14.128906 11.789062 14 13.027344 14 Z M 12.917969 16.019531 C 12.539062 16.019531 12.570312 16.089844 12.390625 16.140625 L 12.5 33.878906 C 12.710938 33.949219 12.527344 33.960938 12.699219 33.949219 C 15.410156 33.828125 18.039062 32 18.039062 24.640625 C 18.039062 19.199219 16.378906 16.019531 12.917969 16.019531 Z M 22.75 20 L 25.308594 20 L 26.789062 28.097656 C 27.109375 29.757812 27.488281 31.417969 27.691406 33.019531 C 27.910156 31.417969 28.351562 29.628906 28.710938 28.160156 L 30.527344 20 L 32.417969 20 L 34.082031 27.9375 C 34.46875 29.667969 34.871094 31.269531 35.121094 33 C 35.320312 31.371094 35.679688 29.789062 36.03125 28.027344 L 37.539062 20 L 40 20 L 36.070312 36 L 34.050781 36 L 32.261719 28.480469 C 31.871094 26.980469 31.679688 25.089844 31.421875 23.328125 L 31.359375 23.328125 C 31.109375 25.148438 30.789062 27.101562 30.429688 28.578125 L 28.582031 36 L 26.5 36 Z M 22.75 20 "/>
</g>
</svg>
