<?xml version="1.0" encoding="UTF-8"?>
<svg xmlns="http://www.w3.org/2000/svg" xmlns:xlink="http://www.w3.org/1999/xlink" width="50pt" height="50pt" viewBox="0 0 50 50" version="1.1" fill="#8B8B8B">
<g id="surface2101409">
<path style=" stroke:none;fill-rule:nonzero;fill-opacity:1;" d="M 6 4 C 4.898438 4 4 4.898438 4 6 L 4 44 C 4 45.101562 4.898438 46 6 46 L 44 46 C 45.101562 46 46 45.101562 46 44 L 46 6 C 46 4.898438 45.101562 4 44 4 Z M 29 14 C 35.070312 14 40 18.929688 40 25 C 40 31.070312 35.070312 36 29 36 L 19.5 36 C 14.261719 36 10 31.738281 10 26.5 C 10 21.261719 14.261719 17 19.5 17 C 20.109375 17 20.699219 17.058594 21.277344 17.167969 C 23.269531 15.210938 25.988281 14 29 14 Z M 29 16 C 26.941406 16 24.972656 16.699219 23.378906 17.972656 C 24.03125 18.300781 24.640625 18.699219 25.199219 19.132812 C 26.320312 18.390625 27.628906 18 29 18 C 32.859375 18 36 21.140625 36 25 C 36 28.859375 32.859375 32 29 32 C 25.890625 32 23.742188 29.648438 21.460938 27.160156 C 20.882812 26.519531 20.300781 25.890625 19.710938 25.289062 C 19.320312 24.898438 18.679688 24.898438 18.289062 25.289062 C 17.898438 25.679688 17.898438 26.320312 18.289062 26.710938 C 18.867188 27.28125 19.429688 27.898438 19.992188 28.511719 L 21.039062 29.652344 C 22.289062 30.980469 23.609375 32.230469 25.171875 33.039062 C 26.300781 33.628906 27.558594 34 29 34 C 33.960938 34 38 29.960938 38 25 C 38 20.039062 33.960938 16 29 16 Z M 19.5 19 C 15.359375 19 12 22.359375 12 26.5 C 12 30.640625 15.359375 34 19.5 34 C 20.441406 34 21.359375 33.832031 22.222656 33.488281 C 21.582031 32.988281 20.988281 32.449219 20.449219 31.910156 C 20.140625 31.96875 19.820312 32 19.5 32 C 16.46875 32 14 29.53125 14 26.5 C 14 23.46875 16.46875 21 19.5 21 C 21.78125 21 23.699219 23.007812 25.402344 24.789062 C 25.710938 25.109375 26 25.421875 26.289062 25.710938 C 26.679688 26.101562 27.320312 26.101562 27.710938 25.710938 C 28.101562 25.320312 28.101562 24.679688 27.710938 24.289062 C 27.429688 24.007812 27.140625 23.710938 26.851562 23.410156 C 26.050781 22.558594 25.160156 21.640625 24.160156 20.859375 C 23.699219 20.488281 23.21875 20.160156 22.699219 19.878906 C 21.730469 19.339844 20.671875 19 19.5 19 Z M 19.5 19 "/>
</g>
</svg>
