<?xml version="1.0" encoding="UTF-8"?>
<svg xmlns="http://www.w3.org/2000/svg" xmlns:xlink="http://www.w3.org/1999/xlink" width="50pt" height="50pt" viewBox="0 0 50 50" version="1.1" fill="#8B8B8B">
<g id="surface2102046">
<path style=" stroke:none;fill-rule:nonzero;fill-opacity:1;" d="M 44 4 L 6 4 C 4.898438 4 4 4.898438 4 6 L 4 44 C 4 45.101562 4.898438 46 6 46 L 44 46 C 45.101562 46 46 45.101562 46 44 L 46 6 C 46 4.898438 45.101562 4 44 4 Z M 22 16.140625 L 15.488281 16.140625 L 15.5 24 L 21 24 L 21 26 L 15.5 26 L 15.460938 36 L 13 36 L 13 14 L 22 14 Z M 36.039062 36 L 34.011719 36 L 32.199219 28.480469 C 31.820312 26.980469 31.621094 25.089844 31.359375 23.328125 L 31.300781 23.328125 C 31.039062 25.148438 30.71875 27.101562 30.371094 28.578125 L 28.5 36 L 26.398438 36 L 22.628906 20 L 25.210938 20 L 26.691406 28.101562 C 27.011719 29.761719 27.398438 31.421875 27.601562 33.019531 C 27.820312 31.421875 28.269531 29.628906 28.621094 28.160156 L 30.460938 20 L 32.359375 20 L 34.039062 27.941406 C 34.429688 29.671875 34.828125 31.269531 35.089844 33 C 35.28125 31.371094 35.648438 29.789062 36 28.03125 L 37.519531 20 L 40 20 Z M 36.039062 36 "/>
</g>
</svg>
