<?xml version="1.0" encoding="UTF-8"?>
<svg xmlns="http://www.w3.org/2000/svg" xmlns:xlink="http://www.w3.org/1999/xlink" width="50pt" height="50pt" viewBox="0 0 50 50" version="1.1" fill="#8B8B8B">
<g id="surface2101788">
<path style=" stroke:none;fill-rule:nonzero;fill-opacity:1;" d="M 6 4 C 4.898438 4 4 4.898438 4 6 L 4 44 C 4 45.101562 4.898438 46 6 46 L 44 46 C 45.101562 46 46 45.101562 46 44 L 46 6 C 46 4.898438 45.101562 4 44 4 Z M 19.929688 14 L 22.652344 14 L 27.449219 36 L 25.011719 36 L 23.621094 29.570312 L 18.820312 29.570312 L 17.402344 36 L 15 36 Z M 32.730469 14 C 33.660156 14 34.25 14.628906 34.25 15.558594 C 34.25 16.5 33.660156 17.128906 32.730469 17.128906 L 32.699219 17.128906 C 31.878906 17.128906 31.25 16.5 31.25 15.558594 C 31.25 14.628906 31.910156 14 32.730469 14 Z M 21.230469 16.441406 C 20.96875 18.070312 20.648438 19.929688 20.328125 21.402344 L 19.230469 27 L 23.320312 27 L 22.191406 21.371094 C 21.871094 19.828125 21.582031 18.039062 21.320312 16.441406 Z M 31.5 19 L 34 19 L 34 36 L 31.5 36 Z M 31.5 19 "/>
</g>
</svg>
