<?xml version="1.0" encoding="UTF-8"?>
<svg xmlns="http://www.w3.org/2000/svg" xmlns:xlink="http://www.w3.org/1999/xlink" width="50pt" height="50pt" viewBox="0 0 50 50" version="1.1" fill="#8B8B8B">
<g id="surface2101695">
<path style=" stroke:none;fill-rule:nonzero;fill-opacity:1;" d="M 32.246094 22.113281 C 30.199219 22.113281 29.464844 24.773438 29.464844 27.875 C 29.464844 31.140625 30.265625 34.265625 32.054688 34.265625 C 32.824219 34.265625 33.816406 33.863281 34.359375 31.625 C 34.457031 31.335938 34.484375 30.75 34.484375 30.75 L 34.484375 26.1875 C 34.484375 25.867188 34.519531 25.476562 34.484375 25.125 C 34.359375 23.523438 33.429688 22.113281 32.246094 22.113281 Z M 44 4 L 6 4 C 4.898438 4 4 4.898438 4 6 L 4 44 C 4 45.101562 4.898438 46 6 46 L 44 46 C 45.101562 46 46 45.101562 46 44 L 46 6 C 46 4.898438 45.101562 4 44 4 Z M 26.5 36 L 24 36 L 19.757812 27.871094 L 15.5 36 L 13.035156 36 L 18.519531 25.5 L 13.035156 15 L 15.5 15 L 19.757812 23.128906 L 24 15 L 26.5 15 L 21 25.5 Z M 37 32.625 C 37 33.679688 36.96875 35.105469 37 36 L 34.5 36 L 34.5 34.375 C 34.019531 35.464844 33.113281 36.3125 31.480469 36.3125 C 28.855469 36.3125 27 32.996094 27 27.875 C 27 22.371094 29.304688 20 31.703125 20 C 32.824219 20 33.894531 20.5625 34.5 21.875 L 34.5 14 L 37 14 Z M 37 32.625 "/>
</g>
</svg>
