<?xml version="1.0" encoding="UTF-8"?>
<svg xmlns="http://www.w3.org/2000/svg" xmlns:xlink="http://www.w3.org/1999/xlink" width="50pt" height="50pt" viewBox="0 0 50 50" version="1.1" fill="#8B8B8B">
<g id="surface2101751">
<path style=" stroke:none;fill-rule:nonzero;fill-opacity:1;" d="M 6 4 C 4.898438 4 4 4.898438 4 6 L 4 44 C 4 45.101562 4.898438 46 6 46 L 44 46 C 45.101562 46 46 45.101562 46 44 L 46 6 C 46 4.898438 45.101562 4 44 4 Z M 18.582031 14 C 20.570312 14 22.261719 14.480469 23.390625 15.570312 C 24.410156 16.589844 24.949219 18.160156 24.949219 20.050781 C 24.949219 22.03125 24.46875 23.371094 23.640625 24.460938 C 22.492188 26.0625 20.472656 26.859375 18.550781 26.859375 C 18.140625 26.859375 17.820312 26.859375 17.460938 26.828125 L 17.460938 36 L 15 36 L 15 14.417969 C 15.988281 14.160156 17.140625 14 18.582031 14 Z M 18.980469 15.640625 C 18.402344 15.640625 17.917969 15.699219 17.597656 15.800781 L 17.597656 24.410156 C 17.890625 24.441406 18.179688 24.472656 18.589844 24.472656 C 20.988281 24.472656 22.617188 22.871094 22.617188 19.832031 C 22.617188 17.621094 21.730469 15.640625 18.980469 15.640625 Z M 31.710938 20 C 32.980469 20 33.898438 20.390625 34.570312 20.800781 L 33.902344 22.671875 C 33.269531 22.25 32.609375 21.960938 31.75 21.960938 C 30.390625 21.960938 29.691406 22.917969 29.691406 23.949219 C 29.691406 24.980469 30.089844 25.589844 31.679688 26.621094 C 33.539062 27.777344 35 29.21875 35 31.371094 C 35 34.488281 32.808594 36 30.152344 36 C 28.992188 36 27.699219 35.648438 27 35.101562 L 27.628906 33.242188 C 28.199219 33.589844 29.191406 34.039062 30.21875 34.039062 C 31.652344 34.039062 32.578125 33.167969 32.578125 31.789062 C 32.578125 30.597656 32.148438 29.769531 30.519531 28.742188 C 28.429688 27.421875 27.300781 26.070312 27.300781 24.3125 C 27.300781 21.769531 29.222656 20 31.710938 20 Z M 31.710938 20 "/>
</g>
</svg>
