<?xml version="1.0" encoding="UTF-8"?>
<svg id="Layer_1" data-name="Layer 1" xmlns="http://www.w3.org/2000/svg" viewBox="0 0 315.23 330.88" fill="#8B8B8B">
  <path d="M164.08,10.99c-1.39-1.03-2.56-1.9-3.94-2.92,.99-1.01,1.82-2.04,2.83-2.83,4.04-3.18,8.66-4.9,13.79-5.22,1.82-.11,3.56,.26,5.22,1.07,10.19,4.89,20.42,9.69,30.58,14.64,19.5,9.51,37.64,21.08,53.57,35.93,13.34,12.44,24.36,26.64,32.55,42.97,5.9,11.78,10.08,24.16,12.62,37.08,2.4,12.22,3.76,24.55,3.92,37.02,.5,39.27-11.9,73.74-38.05,103.17-17.16,19.31-38.04,33.27-61.86,42.99-16.16,6.59-32.87,11.21-50.12,13.83-15.08,2.29-30.23,2.81-45.43,1.29-17.85-1.78-35.1-5.93-51.49-13.37-23.36-10.61-40.89-27.31-52.38-50.29-5.37-10.74-9.1-22.05-11.53-33.8-2.53-12.25-3.62-24.65-4.14-37.12-.58-13.81-.08-27.58,1.54-41.29,3.29-27.85,11.03-54.42,23.26-79.66,5.61-11.57,12.43-22.36,21.31-31.72,8.25-8.7,17.42-16.1,28.98-20.07,7.11-2.44,14.43-3.83,21.87-4.68,10.84-1.23,21.69-2.4,32.54-3.53,9.06-.95,18.13-1.82,27.2-2.73,2.29-.23,4.57-.48,7.16-.76ZM20.14,180.4c-.04,5.6,.49,14.22,1.47,22.8,1.3,11.41,3.26,22.7,6.3,33.78,4.59,16.74,13.23,30.99,26.58,42.25,8.81,7.43,18.78,12.8,29.47,16.94,12.65,4.9,25.71,8.16,39.14,10.03,9.08,1.26,18.2,2.05,27.37,1.96,12.01-.11,23.94-1.17,35.72-3.63,10.01-2.09,19.7-5.2,28.79-9.93,17.8-9.28,32.64-22.08,44.74-38.08,10.86-14.35,18.65-30.3,24.37-47.3,5.98-17.76,9.2-35.95,8.57-54.76-.49-14.67-3.34-28.85-8.38-42.61-5.86-16-14.83-29.95-27.26-41.64-9.37-8.81-20.05-15.67-31.54-21.38-3.97-1.98-7.6-2.39-11.74-.35-4.63,2.28-9.43,2.1-13.99-.64-7.78-4.68-15.86-8.79-24.17-12.42-11.85-5.17-24.1-7.4-37.06-5.18-13.71,2.35-27.34,4.98-40.83,8.41-14.2,3.61-26.93,9.95-37.65,20.07-7.98,7.53-13.99,16.46-18.7,26.34-13.92,29.19-21.19,59.9-21.2,95.33Z"/>
  <path d="M236.85,186.3c1.02,2.16,1.62,4.18,1.18,6.62-3.47,19.36-14.27,33.32-31.25,42.77-10.64,5.93-22.06,9.47-34.15,10.82-18.96,2.11-37.59,.5-55.72-5.55-13.69-4.57-25.89-11.73-36.1-22.01-9.06-9.12-14.36-20.14-16.01-32.89-.05-.36-.07-.72-.17-1.07-1.04-3.74,.94-6.61,2.7-9.55,2.54,1.63,4.65,3.56,5.98,6.28,1.11,2.26,2.44,4.4,3.55,6.66,4.01,8.16,10.27,14.29,17.56,19.47,9.1,6.47,19.27,10.6,29.98,13.51,11.79,3.2,23.75,5.02,35.99,4.69,17.72-.48,34.02-5.54,48.94-15.12,8.99-5.77,16.66-12.91,22.62-21.82,1.18-1.76,3.19-1.94,4.88-2.8Z"/>
  <path d="M206.69,122.36c7.06-.04,13.22,5.25,13.77,12.28,.68,8.7-6.16,17.42-14.79,17.86-3.46,.18-6.4-1.07-8.66-3.62-4.29-4.85-5.53-10.6-4.06-16.78,1.45-6.08,6.84-9.71,13.74-9.74Z"/>
  <path d="M115.18,136.87c-.22,1.47-.32,3-.67,4.46-1.21,5.02-4.62,8.15-9.74,8.72-4.58,.51-8.86-.49-12.43-3.54-4.09-3.49-5.2-8.17-4.82-13.32,.1-1.38,.33-2.79,.73-4.12,1.83-6.07,6.84-9.27,13.46-8.69,6.32,.55,11.33,5.13,12.8,11.81,.33,1.51,.45,3.07,.68,4.67Z"/>
</svg>