<?xml version="1.0" encoding="utf-8"?>
<!-- Generator: Adobe Illustrator 27.0.1, SVG Export Plug-In . SVG Version: 6.00 Build 0)  -->
<svg version="1.1" id="Layer_1" xmlns="http://www.w3.org/2000/svg" xmlns:xlink="http://www.w3.org/1999/xlink" x="0px" y="0px"
	 viewBox="0 0 32.2 30" style="enable-background:new 0 0 32.2 30;" xml:space="preserve">
<style type="text/css">
	.st0{fill:#8B8B8B;}
</style>
<path class="st0" d="M2.6,15.4C2.4,7.9,8.1,1.2,15.4,0C9.6,0.1,5,2.5,2.1,7.5c-3.1,5.3-2.8,10.8,0.6,15.9c3,4.5,7.4,6.6,12.7,6.6
	C7.9,28.7,2.8,22.2,2.6,15.4L2.6,15.4z M4.1,10.4C4,10.8,4,10.8,4.5,10.8h27.1c0,0,0-0.1,0-0.1c0-0.1-0.1-0.2-0.1-0.3
	c-1.1-3.2-3.1-5.7-5.9-7.6c-3.2-2.1-6.7-2.7-10.4-2C9.7,1.9,6.1,5.2,4.1,10.4z M3.9,12.5c-0.2,0-0.2,0.1-0.3,0.2
	c-0.1,0.4-0.1,0.8-0.1,1.3c0,0.2,0,0.2,0.2,0.2c1.5,0,2.9,0,4.4,0c0.1,0,0.2,0,0.2,0h19c0.1,0,0.2,0,0.2,0c1.5,0,2.9,0,4.4,0
	c0.2,0,0.2-0.1,0.2-0.2c0-0.4-0.1-0.8-0.1-1.2c0-0.3-0.1-0.3-0.4-0.3c-9.2,0-18.4,0-27.6,0C4,12.5,3.9,12.5,3.9,12.5L3.9,12.5z
	 M32,15.8c-1.5,0-2.9,0-4.4,0c-0.1,0-0.2,0-0.2,0h-19c-0.1,0-0.2,0-0.2,0c-1.5,0-2.9,0-4.4,0c-0.2,0-0.2,0-0.2,0.2
	c0,0.4,0.1,0.9,0.1,1.3c0,0.1,0,0.2,0.2,0.2c1.5,0,3,0,4.5,0c0.1,0,0.2,0,0.3,0H27c0.1,0,0.2,0,0.3,0c1.5,0,3,0,4.5,0
	c0.1,0,0.2,0,0.2-0.2c0-0.4,0.1-0.9,0.1-1.3C32.2,15.8,32.1,15.8,32,15.8z M8.2,16.8L8.2,16.8L8.2,16.8L8.2,16.8z M31.3,19.1
	c-9,0-17.9,0-26.9,0c-0.1,0-0.2-0.1-0.3,0.1c0,0.1,0.1,0.3,0.1,0.4C6.1,25.3,12.3,30.8,21,29c3.5-0.7,6.2-2.7,8.4-5.6
	c0.9-1.2,1.7-2.6,2.1-4.1C31.7,19,31.4,19.1,31.3,19.1z"/>
</svg>
