<svg version="1.1" xmlns="http://www.w3.org/2000/svg" xmlns:xlink="http://www.w3.org/1999/xlink" x="0px" y="0px" viewBox="0 0 1000 1000" enable-background="new 0 0 1000 1000" xml:space="preserve" fill="#8B8B8B">
<path d="M223,393.5h42.6c25.6,0,42.6,21.3,42.6,42.6h42.6c0-46.9-38.3-85.2-85.2-85.2H223c-46.9,0-85.2,38.3-85.2,85.2c0,46.9,38.3,85.2,85.2,85.2h42.6c25.6,0,42.6,17,42.6,42.6s-17,42.6-42.6,42.6H223c-25.6,0-42.6-21.3-42.6-42.6l0,0h-42.6l0,0c0,46.9,38.3,85.2,85.2,85.2h42.6c46.9,0,85.2-38.3,85.2-85.2s-38.3-85.2-85.2-85.2H223c-25.6,0-42.6-17-42.6-42.6S197.5,393.5,223,393.5z"/><path d="M606.5,563.9V436.1c0-46.9-38.3-85.2-85.2-85.2h-42.6c-46.9,0-85.2,38.3-85.2,85.2v127.8c0,46.9,38.3,85.2,85.2,85.2h42.6c8.5,0,21.3,0,29.8-4.3l38.3,38.3l29.8-29.8l-34.1-34.1C598,606.5,606.5,585.2,606.5,563.9z M563.9,563.9c0,8.5-4.3,17-8.5,25.6l-59.6-59.6l-29.8,29.8l46.9,46.9h-34.1c-25.6,0-42.6-17-42.6-42.6V436.1c0-25.6,17-42.6,42.6-42.6h42.6c25.6,0,42.6,17,42.6,42.6V563.9z"/><path d="M862.2,223H137.8C65.4,223,10,278.4,10,350.9v298.3C10,721.6,65.4,777,137.8,777h724.3c72.4,0,127.8-55.4,127.8-127.8V350.9C990,278.4,934.6,223,862.2,223z M947.4,649.1c0,46.9-38.3,85.2-85.2,85.2H137.8c-46.9,0-85.2-38.3-85.2-85.2V350.9c0-46.9,38.3-85.2,85.2-85.2h724.3c46.9,0,85.2,38.3,85.2,85.2V649.1z"/><polygon points="691.7,350.9 649.1,350.9 649.1,649.1 862.2,649.1 862.2,606.5 691.7,606.5 "/></svg>