<svg xmlns="http://www.w3.org/2000/svg" viewBox="0 0 218.73 147.63"><defs><style>.cls-1{fill:#1c1c1c;}</style></defs><title>Asset 6</title><g id="Layer_2" data-name="Layer 2"><g id="Layer_1-2" data-name="Layer 1"><path class="cls-1" d="M10.84,48.5l7.29,4.21a.64.64,0,0,1,.23.88L8.41,70.83l-6,2.79A1.29,1.29,0,0,1,.59,72.56L0,66,10,48.74A.65.65,0,0,1,10.84,48.5ZM3.63,65.76l-1.88.5.31,3.5,2,1.18,3.18-1.48-.5-1.88-2.49.67ZM6,63.12,11.86,53a.75.75,0,0,0-1.3-.75L4.72,62.37a.75.75,0,0,0,1.3.75ZM19.86,51a.64.64,0,0,1-.88.23L11.69,47a.64.64,0,0,1-.23-.88l1.74-3a2.58,2.58,0,0,1,3.52-.94l4,2.27A2.58,2.58,0,0,1,21.61,48Z"/><path class="cls-1" d="M85.63,76.68,97,83.25,95.74,85.9A2,2,0,0,1,93.92,87l-2.4-.09L89.6,90.24l-6.32-3.65,1.93-3.34-1.27-2a2.08,2.08,0,0,1-.23-.53A2.22,2.22,0,0,1,84,79.09Zm-2.22,12,4.4,2.54-1.35,2.33-5.61-.27ZM103.79,69l-6,12.66L86.6,75.26l8-11.56a2.93,2.93,0,0,1,3.92-.92l4.15,2.39A3,3,0,0,1,103.79,69Z"/><path class="cls-1" d="M46.65,130.19a3.51,3.51,0,0,1-2.45,4.28l-4.13,1.1a3.63,3.63,0,0,0-1.79,5.94,3.38,3.38,0,0,1-.92,5.34c-6.31,2.79-17-2.09-17.66-12.29a13.73,13.73,0,0,1,27-4.37Zm-19.54,0a1.71,1.71,0,1,0-1.21,2.1A1.71,1.71,0,0,0,27.11,130.17Zm.12,7.07a1.71,1.71,0,1,0-1.21,2.1A1.71,1.71,0,0,0,27.23,137.24Zm5.62-12.16a1.71,1.71,0,1,0-1.21,2.1A1.71,1.71,0,0,0,32.85,125.08Zm7.52,1.53a1.72,1.72,0,1,0-1.21,2.1A1.72,1.72,0,0,0,40.37,126.61Z"/><path class="cls-1" d="M80.54,120.84,87,124.58l-.54,4.82a2,2,0,0,1-.77,1.33l-8.34,5.5-.31-.18,3.52-6.1a1.55,1.55,0,0,0,.43,0,1.72,1.72,0,1,0-2.1-1.22,1.76,1.76,0,0,0,.19.39l-3.52,6.1-.31-.18.6-10a1.94,1.94,0,0,1,.76-1.33Zm15.09-10-7.79,12.25-6.42-3.71,6.71-12.87C90.82,101.11,99,105.77,95.63,110.84Z"/><path class="cls-1" d="M198.35,53.4l-6,10.4a1.5,1.5,0,0,1-.19-.38l-6.21-23.2a1.72,1.72,0,0,1,1.21-2.1l5-1.33a1.72,1.72,0,0,1,2.1,1.21l.45,1.66-2.9.78a.43.43,0,0,0-.31.52l.23.83a.41.41,0,0,0,.52.3l2.9-.77.89,3.31-2.9.78a.42.42,0,0,0-.3.52l.22.83a.43.43,0,0,0,.52.31l2.9-.78.89,3.31-2.9.78a.42.42,0,0,0-.3.52l.22.83a.44.44,0,0,0,.53.31l2.9-.78Zm19-2,1.33,5a1.72,1.72,0,0,1-1.22,2.1l-23.19,6.22a2.1,2.1,0,0,1-.43,0l6-10.4,2.15-.57.77,2.9a.44.44,0,0,0,.53.3l.83-.22a.43.43,0,0,0,.3-.53l-.78-2.9,3.32-.89.78,2.9a.43.43,0,0,0,.52.31l.83-.23a.42.42,0,0,0,.3-.52l-.77-2.9,3.31-.89.78,2.9a.41.41,0,0,0,.52.3l.83-.22a.41.41,0,0,0,.3-.52l-.77-2.9,1.65-.45A1.73,1.73,0,0,1,217.34,51.35Z"/><path class="cls-1" d="M130.37,119.39a1.29,1.29,0,0,1-1.76.48l-1.49-.86a1.3,1.3,0,0,1-.47-1.76l5.83-10.15-10.12-5.87a1.28,1.28,0,0,1-.47-1.76l.86-1.49a1.3,1.3,0,0,1,1.76-.47l12.76,7.37a1.29,1.29,0,0,1,.47,1.75Zm28.78-7-15.74,4.22a1.3,1.3,0,0,1-1.58-.91l-.44-1.66a1.28,1.28,0,0,1,.91-1.58L158,108.25a1.28,1.28,0,0,1,1.57.9l.45,1.66A1.3,1.3,0,0,1,159.15,112.39Z"/><path class="cls-1" d="M107.31,39.3l-9.34-5a.64.64,0,0,1-.24-.91l5.59-9a.64.64,0,0,1,.88-.21l2.9,1.8a.64.64,0,0,1,.2.9l-3.59,5.39,5.8,2.87a.65.65,0,0,1,.28.88l-1.61,3A.63.63,0,0,1,107.31,39.3Zm4.93,3.9a.65.65,0,0,1-.64-.66l.55-26.24a.63.63,0,0,1,.66-.63l3.4.07a.63.63,0,0,1,.63.66l-.54,26.24a.64.64,0,0,1-.66.63Zm12-8.46-2.89-1.8a.63.63,0,0,1-.2-.9l3.58-5.39-5.79-2.87a.64.64,0,0,1-.28-.88l1.6-3a.66.66,0,0,1,.88-.26l9.34,5a.64.64,0,0,1,.24.91l-5.59,9A.65.65,0,0,1,124.24,34.74Z"/><path class="cls-1" d="M197.79,96.79c.05.15.13.3.17.46,1.06,4-1,7-5,8-4.66,1.25-7.63-2-8.77-6.24.6.21,2.76,1.17,3.33,1a.82.82,0,0,0,.62-.72,5.44,5.44,0,0,1,4-5.1ZM206.47,76a5.63,5.63,0,0,1-.08,2.58C203.46,91,202.23,93.9,199,94.76a4.49,4.49,0,0,1-1.2.15l-4-1.87a4.92,4.92,0,0,1-1-1.88c-.75-2.78.3-3.3,8.35-15.59A3.24,3.24,0,0,1,203,74.16,2.79,2.79,0,0,1,206.47,76Z"/><path class="cls-1" d="M67.62,29.53l3.68,21-7.43,4.89L55,54.86l-7.3-20ZM65,34.67,52.55,38l2.68,7.37,8.65-2.32.55,3.3-2.58,1.5h-3l-.71-1.92-2.47.66,1.36,3.84,5.49,0,.06,0v0l4.7-2.75-1.36-7.88-9.09,2.44-.9-2.5,9.52-2.55Z"/><path class="cls-1" d="M49.63,76.75l3.69,21-7.41,4.88-8.86-.52-7.3-20Zm-15.1,8.48,1,2.37,6.36-1.7-.3.23-5.16,4,.83,2.35h0l8.62-2.29.66,3.25L43.9,95,41,95l-.7-1.94-2.53.68,1.35,3.74,5.53.14,4.68-2.85L48,87l-5.77,1.55h0l5.29-4.15-.41-2.52Z"/><path class="cls-1" d="M177.81,0,184,23.2l-23.2,6.21L154.61,6.22Zm-7.72,13.49-2.18.58,2,7.41c.3,1.09-.08,1.49-.8,1.69s-1.2-.23-1.7-.75L165.9,24a3.53,3.53,0,0,0,3.81,1.12,3.07,3.07,0,0,0,2.37-4.16Zm10.83,5.34c-.49-1.82-1.75-2.36-3.82-2.65l-.6-.09c-1.05-.16-1.52-.31-1.7-1a1,1,0,0,1,.79-1.22,1.56,1.56,0,0,1,1.66.56l1.4-1.54a3.32,3.32,0,0,0-3.56-.92,3,3,0,0,0-2.42,3.74c.48,1.77,1.74,2.34,3.5,2.58l.6.09c1.12.17,1.78.28,2,1s-.29,1.24-1.19,1.48a2.46,2.46,0,0,1-2.51-.75l-1.5,1.5a4.35,4.35,0,0,0,4.57,1.16C180.19,22.28,181.44,20.79,180.92,18.83Z"/><path class="cls-1" d="M164.05,58.52c1.29,4.82-5.09,10.7-14.24,13.16s-17.61.54-18.9-4.28S136,56.7,145.14,54.25,162.76,53.71,164.05,58.52Zm-32.27,8.65c1.1,4.1,8.92,6,17.8,3.64s14.7-8,13.6-12.06-8.93-6-17.81-3.63S130.68,63.06,131.78,67.17Zm4.83-5.43,3.66-1a3.17,3.17,0,0,1,2.64.22c1.26.85,1.5,3.16.48,4.76S141.12,67.41,139,68l.17,2.44-1.9.51Zm2,.94.27,3.85c1.78-.48,3.28-.65,3.13-2.86S140.59,62.15,138.62,62.68Zm7.18-5.89.17,2.44c1.63-.44,3.11-1,4-.48s.83,1.49,1.14,6l-1.91.51c-.31-4.32-.25-4.71-.62-4.94s-1,0-2.52.42l.37,5.26-1.89.51-.65-9.18Zm5.67,1,3.66-1a3.17,3.17,0,0,1,2.64.22c1.26.85,1.5,3.16.48,4.76-.9,1.44-2.17,1.64-4.41,2.24l.18,2.44-1.91.51Zm2,.94.27,3.85c1.73-.47,3.29-.62,3.13-2.86C156.72,57.6,155.45,58.17,153.47,58.7Z"/></g></g></svg>