<svg id="Layer_1" data-name="Layer 1" xmlns="http://www.w3.org/2000/svg" viewBox="0 0 367.2 319.9"><defs><style>.cls-1{fill:#e6e6e6;}</style></defs><title>background-icons</title><path class="cls-1" d="M375.18,398l14.21,3.81a1.12,1.12,0,0,1,.8,1.38l-9,33.63-8.87,7.43a2.26,2.26,0,0,1-3.56-1l-4-10.85,9-33.63A1.14,1.14,0,0,1,375.18,398Zm-4.37,32.43-2.95,1.7,2.11,5.76,4,1.07,4.71-3.94L377,432.1l-3.89,2.25Zm2.84-5.55,5.29-19.73a1.31,1.31,0,0,0-2.54-.68l-5.28,19.73a1.31,1.31,0,0,0,2.53.68Zm17.89-26.75a1.12,1.12,0,0,1-1.38.79L376,395.14a1.12,1.12,0,0,1-.8-1.38l1.58-5.9a4.51,4.51,0,0,1,5.51-3.18l7.7,2.06a4.49,4.49,0,0,1,3.18,5.51Z" transform="translate(-364.78 -240.45)"/><path class="cls-1" d="M517.13,414.29l22.2,5.94-.93,5a3.45,3.45,0,0,1-2.6,2.67l-4.08.94L530,435.4l-12.33-3.3,1.75-6.53-3.07-2.86a4.37,4.37,0,0,1-.63-.79,4,4,0,0,1-.28-2.81Zm1.67,21.22,8.59,2.3-1.22,4.54-9.61,2.09Zm25.55-42.36-4.47,24.13-21.74-5.83,8.19-23.13a5.15,5.15,0,0,1,6.21-3.33l8.09,2.17A5.15,5.15,0,0,1,544.35,393.15Z" transform="translate(-364.78 -240.45)"/><path class="cls-1" d="M467.34,448.47a6.13,6.13,0,0,1-2.21,8.34l-6.47,3.74a6.34,6.34,0,0,0-.33,10.84c3.27,2.13,3.89,7,.84,9.44-9.39,7.55-29.62,4.14-35.39-12.77a24,24,0,0,1,43.56-19.59Zm-33,8.81a3,3,0,1,0-1.1,4.1A3,3,0,0,0,434.32,457.28Zm3.4,11.89a3,3,0,1,0-1.1,4.1A3,3,0,0,0,437.72,469.17Zm4-23.09a3,3,0,1,0-1.1,4.1A3,3,0,0,0,441.71,446.08Zm13.39-.8a3,3,0,1,0-1.1,4.1A3,3,0,0,0,455.1,445.28Z" transform="translate(-364.78 -240.45)"/><path class="cls-1" d="M518.23,496.33l12.66,3.39,1.26,8.38a3.4,3.4,0,0,1-.69,2.59l-11.6,13.07-.6-.16,3.19-11.89a3.13,3.13,0,0,0,.71-.24,3,3,0,1,0-4.1-1.1,3.28,3.28,0,0,0,.49.56l-3.19,11.9-.6-.17-3.5-17.12A3.36,3.36,0,0,1,513,503Zm21-23.73-7.61,24.22-12.54-3.36,5.52-24.78C526.67,458.35,542.57,462.53,539.2,472.6Z" transform="translate(-364.78 -240.45)"/><path class="cls-1" d="M695.93,324.57l-5.43,20.29a3,3,0,0,1-.5-.56l-21-36.38a3,3,0,0,1,1.1-4.09l7.8-4.5a3,3,0,0,1,4.1,1.09l1.5,2.6L679,305.65a.75.75,0,0,0-.28,1l.75,1.3a.76.76,0,0,0,1,.28l4.55-2.63,3,5.2-4.55,2.62a.76.76,0,0,0-.28,1l.75,1.3a.75.75,0,0,0,1,.27l4.55-2.62,3,5.19L688,321.24a.75.75,0,0,0-.28,1l.75,1.3a.75.75,0,0,0,1,.27l4.55-2.62Zm31.14-12.07,4.5,7.8a3,3,0,0,1-1.09,4.1l-36.38,21a2.61,2.61,0,0,1-.7.23l5.43-20.28,3.36-1.94,2.63,4.54a.75.75,0,0,0,1,.28l1.3-.75a.76.76,0,0,0,.28-1l-2.63-4.54,5.2-3,2.62,4.54a.76.76,0,0,0,1,.28l1.29-.75a.75.75,0,0,0,.28-1l-2.63-4.54,5.2-3,2.63,4.54a.75.75,0,0,0,1,.28l1.3-.75a.75.75,0,0,0,.27-1l-2.62-4.54,2.6-1.5A3,3,0,0,1,727.07,312.5Z" transform="translate(-364.78 -240.45)"/><path class="cls-1" d="M530.29,348.27a2.26,2.26,0,0,1-2.76,1.59l-2.9-.78a2.24,2.24,0,0,1-1.59-2.75l5.25-19.78-19.76-5.35a2.24,2.24,0,0,1-1.59-2.75l.78-2.91a2.24,2.24,0,0,1,2.75-1.59l24.89,6.67a2.25,2.25,0,0,1,1.59,2.76Zm45.44-24.86L551,337.66a2.25,2.25,0,0,1-3.07-.83l-1.5-2.6a2.25,2.25,0,0,1,.82-3.07L572,316.91a2.25,2.25,0,0,1,3.07.82l1.5,2.6A2.26,2.26,0,0,1,575.73,323.41Z" transform="translate(-364.78 -240.45)"/><path class="cls-1" d="M610,459.58l-18-4.22a1.11,1.11,0,0,1-.82-1.42l5.37-17.72a1.12,1.12,0,0,1,1.4-.75l5.71,1.73a1.11,1.11,0,0,1,.74,1.43l-3.62,10.72,11.09,2.22a1.12,1.12,0,0,1,.87,1.36l-1.35,5.81A1.13,1.13,0,0,1,610,459.58Zm10.09,4.35a1.14,1.14,0,0,1-1.37-.83l-11-44.57a1.13,1.13,0,0,1,.82-1.37l5.78-1.42a1.13,1.13,0,0,1,1.37.83l11,44.57a1.12,1.12,0,0,1-.83,1.36Zm16.45-19.73-5.71-1.73a1.12,1.12,0,0,1-.74-1.43l3.62-10.72-11.09-2.24a1.11,1.11,0,0,1-.87-1.35l1.35-5.81a1.14,1.14,0,0,1,1.36-.84l18,4.22a1.13,1.13,0,0,1,.82,1.42L638,443.45A1.14,1.14,0,0,1,636.54,444.2Z" transform="translate(-364.78 -240.45)"/><path class="cls-1" d="M714.28,397.52c.16.23.36.44.5.69,3.58,6.21,1.4,12.21-4.76,15.76-7.31,4.22-13.78.13-17.64-6.56,1.11.08,5.19.72,6.09.2a1.43,1.43,0,0,0,.72-1.5c-.87-5.38,1.37-8.33,4.5-10.42Zm5.24-39.09a9.54,9.54,0,0,1,1,4.38c.71,22.43-.08,27.81-5.12,30.72a8.69,8.69,0,0,1-2,.8L705.79,393a8.69,8.69,0,0,1-2.52-2.73c-2.52-4.37-1-5.71,7-30.12a5.76,5.76,0,0,1,2.5-3.22A4.87,4.87,0,0,1,719.52,358.43Z" transform="translate(-364.78 -240.45)"/><path class="cls-1" d="M462.45,340.2,478.17,374,467.82,385.6l-15.16,3.1-21.39-30.5Zm-2,9.86-19.57,11.3,7.86,11.22,13.55-7.82,2.43,5.33L461,373.78l-5,1.33-2.07-2.93L450,374.42l4,5.87,9.29-2.41.09-.05,0,0,6.69-6.78-5.85-12.69L450,366.57l-2.65-3.82,14.92-8.61Z" transform="translate(-364.78 -240.45)"/><path class="cls-1" d="M450.3,511.85,466,545.63l-10.31,11.6-15.2,3.12-21.39-30.5ZM428.63,533l2.69,3.56,10-5.76-.4.53-6.91,9,2.47,3.59h0L450,536.23l2.58,5.17-3.72,3.82L444,546.6l-2.06-3-4,2.3,4,5.7,9.39-2.26,6.63-6.94-5.84-12.5-9.05,5.23,0,0,7.05-9.41-1.83-4.07Z" transform="translate(-364.78 -240.45)"/><path class="cls-1" d="M635.22,240.45l21,36.38-36.38,21-21-36.38Zm-6.94,26.28-3.42,2,6.71,11.62c1,1.71.53,2.56-.59,3.21s-2.13.15-3.22-.49L626,286.33a6.11,6.11,0,0,0,6.93.17c3-1.75,4.18-4.57,2.14-8.11ZM649,270.85c-1.65-2.85-4-3.19-7.64-2.75l-1.06.13c-1.84.2-2.72.16-3.31-.87a1.71,1.71,0,0,1,.79-2.4,2.69,2.69,0,0,1,3.05.19l1.67-3.24a5.81,5.81,0,0,0-6.43.06c-3,1.76-3.88,4.84-2.4,7.41,1.61,2.78,4,3.16,7.08,2.78l1.06-.12c2-.22,3.13-.34,3.81.83.57,1,.06,2.22-1.35,3a4.31,4.31,0,0,1-4.57-.13L637.83,279c2.15,1.41,5.07,1.73,8.25-.1S650.76,273.92,649,270.85Z" transform="translate(-364.78 -240.45)"/><path class="cls-1" d="M640.8,348.35c4.36,7.55-3.75,20.38-18.09,28.67s-29.51,8.88-33.87,1.33,3.74-20.38,18.09-28.66S636.44,340.8,640.8,348.35Zm-50.6,29.21c3.72,6.44,17.8,6.13,31.72-1.91s21.23-20.07,17.51-26.51-17.8-6.12-31.71,1.91S586.48,371.13,590.2,377.56Zm5.71-11.35,5.74-3.31a5.49,5.49,0,0,1,4.56-.83c2.51.87,4,4.65,3,7.83-.88,2.9-3.09,3.85-6.43,5.78l1.4,4-3,1.72Zm3.82.67,2.2,6.38c2.78-1.61,5.25-2.58,4-6.23C604.72,363.56,602.82,365.1,599.73,366.88Zm9.46-13.2,1.4,4.05c2.55-1.48,4.82-3,6.57-2.64s2.08,2.16,4.63,9.57l-3,1.74c-2.48-7.17-2.55-7.84-3.29-8.07s-1.65.46-4.06,1.85l3,8.73-3,1.71-5.25-15.23Zm10-.92,5.74-3.31a5.46,5.46,0,0,1,4.55-.82c2.52.86,4,4.65,3,7.82-.86,2.84-2.92,3.75-6.43,5.78l1.4,4-3,1.73Zm3.81.68,2.19,6.38c2.72-1.57,5.27-2.53,4-6.24C628,350.12,626.12,351.65,623,353.44Z" transform="translate(-364.78 -240.45)"/></svg>