<?xml version="1.0" encoding="utf-8"?>
<!-- Generator: Adobe Illustrator 24.0.2, SVG Export Plug-In . SVG Version: 6.00 Build 0)  -->
<svg version="1.1" id="Layer_1" xmlns="http://www.w3.org/2000/svg" xmlns:xlink="http://www.w3.org/1999/xlink" x="0px" y="0px"
	 viewBox="0 0 113.1 113.1" style="enable-background:new 0 0 113.1 113.1;" xml:space="preserve">
<style type="text/css">
	.st0{opacity:3.000000e-02;}
	.st1{fill:#FFFFFF;}
</style>
<title>Artboard 8</title>
<g id="Transparent_White" class="st0">
	<path class="st1" d="M56.6,2.8l53.7,53.7l-53.7,53.7L2.8,56.6L56.6,2.8 M56.6,0L0,56.6l56.6,56.6l56.6-56.6L56.6,0z"/>
	<path class="st1" d="M51.6,82.8c6.3,3.2,11.6,2.6,16-1.9c3-3,4.2-5.9,3.6-8.8c-0.6-2.9-2.4-5.9-5.4-8.9L39.1,36.5l1.6-1.6
		l26.7,26.7c7.6,7.6,8.2,14.5,1.8,20.9c-3,3-6.1,4.6-9.3,4.6c-3.6,0-7.1-0.9-10.2-2.5L51.6,82.8z"/>
	<path class="st1" d="M78.9,72.8l-8.8,8.8L31.4,42.9l6.7-6.7c4.8-4.8,9.4-7.6,13.6-8.3c4.2-0.7,8.4,0.8,11.2,3.9
		c3.7,3.7,4.9,7.9,3.5,12.7c6.2-2.8,11.6-1.9,16.3,2.8c3.2,2.9,4.8,7.2,4.2,11.5C86.5,63.2,83.8,67.9,78.9,72.8z M77.5,71.4
		c1.6-1.6,3.1-3.3,4.3-5.1c1.1-1.7,2-3.6,2.7-5.5c0.7-1.9,0.7-3.9,0.2-5.9c-0.6-2.1-1.8-4.1-3.4-5.6c-4-4-8.6-4.8-13.7-2.4L63,48.9
		l1.3-4.9c1.1-3.9,0.1-7.5-2.9-10.5c-5.8-5.8-13-4.3-21.6,4.3l-5.1,5.1l35.6,35.6L77.5,71.4z"/>
</g>
</svg>
