<svg id="Layer_1" data-name="Layer 1" xmlns="http://www.w3.org/2000/svg" viewBox="0 0 80 80"><defs><style>.cls-1{fill:#fff;}</style></defs><title>Artboard 8</title><g id="Transparent_White" data-name="Transparent / White"><path class="cls-1" d="M78,2V78H2V2H78m2-2H0V80H80V0Z"/><path class="cls-1" d="M17.93,55Q21.2,65,30.55,65q6.31,0,8.8-3.67t2.49-10.12V13.42h2.22V51.17q0,16.06-13.51,16.07-6.37,0-9.83-3.26A22.25,22.25,0,0,1,15.26,55Z"/><path class="cls-1" d="M44.31,67.24H31.88V12.51h9.48q10.26,0,15.47,3.79A12.45,12.45,0,0,1,62,27q0,7.83-6.53,11.5Q65,42.07,65,52a13.5,13.5,0,0,1-5.13,11.14Q54.73,67.24,44.31,67.24Zm0-2A34.55,34.55,0,0,0,51,64.69a22.38,22.38,0,0,0,5.79-2,10,10,0,0,0,4.31-4,12.46,12.46,0,0,0,1.56-6.38q0-8.43-8-11.42L50,39.13l4.35-2.52q5.37-3,5.36-9.53,0-12.21-18.34-12.2H34.21v50.4Z"/></g></svg>