<?xml version="1.0" encoding="utf-8"?>
<!-- Generator: Adobe Illustrator 24.0.2, SVG Export Plug-In . SVG Version: 6.00 Build 0)  -->
<svg version="1.1" id="Layer_1" xmlns="http://www.w3.org/2000/svg" xmlns:xlink="http://www.w3.org/1999/xlink" x="0px" y="0px"
	 viewBox="0 0 80 80" style="enable-background:new 0 0 80 80;" xml:space="preserve">
<style type="text/css">
	.st0{opacity:3.000000e-02;}
	.st1{fill:#FFFFFF;}
</style>
<title>Artboard 8</title>
<g id="Transparent_White" class="st0">
	<path class="st1" d="M78,2v76H2V2H78 M80,0H0v80h80V0z"/>
	<path class="st1" d="M17.9,55c2.2,6.7,6.4,10,12.6,10c4.2,0,7.1-1.2,8.8-3.7s2.5-5.8,2.5-10.1V13.4h2.2v37.8
		c0,10.7-4.5,16.1-13.5,16.1c-4.2,0-7.5-1.1-9.8-3.3c-2.5-2.5-4.4-5.6-5.5-9H17.9z"/>
	<path class="st1" d="M44.3,67.2H31.9V12.5h9.5c6.8,0,12,1.3,15.5,3.8c3.4,2.5,5.4,6.5,5.2,10.7c0,5.2-2.2,9.1-6.5,11.5
		C61.8,40.9,65,45.4,65,52c0.2,4.3-1.7,8.5-5.1,11.1C56.4,65.9,51.3,67.2,44.3,67.2z M44.3,65.2c2.2,0,4.5-0.1,6.7-0.5
		c2-0.4,4-1.1,5.8-2c1.8-0.9,3.3-2.3,4.3-4c1.1-1.9,1.6-4.2,1.6-6.4c0-5.6-2.7-9.4-8-11.4L50,39.1l4.3-2.5c3.6-2,5.4-5.2,5.4-9.5
		c0-8.1-6.1-12.2-18.3-12.2h-7.2v50.4L44.3,65.2z"/>
</g>
</svg>
