<svg xmlns="http://www.w3.org/2000/svg" viewBox="0 0 229.57 225.02"><defs><style>.cls-1{fill:#1c1c1c;}</style></defs><title>Asset 1</title><g id="Layer_2" data-name="Layer 2"><g id="Layer_1-2" data-name="Layer 1"><path class="cls-1" d="M123.47,161.53,222,131.58,194.4,212.07A19.15,19.15,0,0,1,170.05,224L13,170.05A19.17,19.17,0,0,1,1,145.7L28.67,65.21l59.4,84.17a31.91,31.91,0,0,0,35.4,12.15Zm105.06-48.88-1.38,4-45.24,13.74,23.94-69.76L85,19.17,61.06,88.93,33.79,50.29l1.38-4c1.68-4.87,7-10.19,11.84-11.88,4.25-1.47,8.26-2.85,14.14-4.77L66.88,13A19.17,19.17,0,0,1,91.23,1L120.51,11.1l4.27-1.31c7.94-2.45,24.38-9.27,33.09-6.13,8.81,2.87,17.6,18.35,22.35,25.16.9,1.28,1.7,2.43,2.57,3.65l29.28,10.06A19.15,19.15,0,0,1,224,66.87l-5.72,16.67c3.46,5.14,5.78,8.69,8.22,12.46A19.15,19.15,0,0,1,228.53,112.65ZM85.32,97a6.39,6.39,0,0,1,8.12-4l60.42,20.74a6.38,6.38,0,0,1,4,8.11l-2.07,6a6.4,6.4,0,0,1-8.12,4L87.22,111.11a6.37,6.37,0,0,1-4-8.11ZM95.69,66.74l2.08-6a6.38,6.38,0,0,1,8.11-4l60.43,20.74a6.39,6.39,0,0,1,4,8.12l-2.07,6a6.38,6.38,0,0,1-8.12,4L99.66,74.86A6.4,6.4,0,0,1,95.69,66.74Z"/></g></g></svg>